<?xml version="1.0"?>
<svg width="360" height="290" xmlns="http://www.w3.org/2000/svg" xmlns:svg="http://www.w3.org/2000/svg" viewBox="0 0 360 290">
 <title>Black border puzzle piece top</title>

 <g>
  <title>Layer 1</title>
  <path fill="none" fill-rule="evenodd" stroke="#000000" stroke-width="7" stroke-linejoin="round" d="m99.50044,1.74969l-97.75,0c0,0 0.125,96.93799 0.125,96.93799l-0.125,182.81201c0,0 98.093,-0.78101 98.093,-0.78101c0,0 22.686,-1.07901 18.90698,-20.59399c-3.78,-19.51401 -35.88599,-6.5 -22.65698,-34.68701c9.095,-10.909 26.11301,-16.00299 41.31299,-16.56299c5.61099,-0.20599 10.888,0.284 15.5,1.25c0.20502,0.02499 0.42001,0.06799 0.625,0.09399c13.11401,1.694 26.44901,6.76199 34.125,15.96899c13.229,28.18701 -18.90799,15.173 -22.68799,34.68701c-3.77902,19.51498 18.90698,20.59399 18.90698,20.59399l97.18701,0.03101l0,-102.09399c1.38699,-6.35202 5.80301,-17.45602 19.93799,-14.71802c19.51401,3.78 6.49902,35.91602 34.68701,22.68701c9.207,-7.67599 14.27499,-21.01001 15.96899,-34.125c0.026,-0.20502 0.069,-0.38901 0.09399,-0.59399c0.966,-4.612 1.45602,-9.88901 1.25,-15.5c-0.56,-15.19902 -5.65399,-32.24802 -16.56299,-41.34302c-28.18799,-13.23 -15.173,18.907 -34.68701,22.68701c-19.51498,3.78 -20.59399,-18.90601 -20.59399,-18.90601l-0.09399,-97.84399l-102.15601,0l-79.40599,0z" id="svg_1" transform="rotate(1.0592e-06, 177.398, 141.625)"></path>
 </g>
</svg>